<?xml version="1.0" standalone="no"?>
<!DOCTYPE svg PUBLIC "-//W3C//DTD SVG 20010904//EN"
 "http://www.w3.org/TR/2001/REC-SVG-20010904/DTD/svg10.dtd">
<svg version="1.0" xmlns="http://www.w3.org/2000/svg"
 width="220.000000pt" height="220.000000pt" viewBox="0 0 220.000000 220.000000"
 preserveAspectRatio="xMidYMid meet">
<metadata>
Created by potrace 1.11, written by Peter Selinger 2001-2013
</metadata>
<g transform="translate(0.000000,220.000000) scale(0.100000,-0.100000)"
fill="#000000" stroke="none">
<path d="M1042 1789 c-19 -5 -53 -29 -76 -52 -62 -62 -78 -131 -51 -223 6 -21
5 -21 -41 -9 -203 51 -345 -178 -210 -340 l25 -30 32 32 32 31 -22 23 c-28 30
-40 76 -30 114 9 34 69 91 96 92 49 2 94 -19 118 -55 37 -55 32 -104 -16 -158
-19 -20 -19 -21 10 -48 28 -27 28 -28 12 -59 -20 -41 -20 -141 1 -182 9 -16
27 -40 40 -52 l24 -23 34 35 c19 19 28 35 22 35 -20 0 -52 62 -52 100 2 127
168 166 228 53 25 -46 5 -132 -34 -147 -15 -6 -14 -10 11 -36 35 -37 48 -37
75 -2 50 62 61 153 28 220 -15 29 -15 31 13 58 l29 28 -26 27 c-57 59 -35 163
42 195 47 20 90 12 126 -22 51 -50 54 -120 6 -171 l-22 -24 33 -32 32 -32 28
33 c115 135 22 343 -154 343 -30 0 -68 -6 -84 -14 l-29 -15 14 42 c31 86 -5
189 -85 242 -44 29 -126 40 -179 23z m128 -94 c35 -18 60 -62 60 -105 0 -36
-23 -85 -45 -97 -13 -8 -11 -14 13 -36 l29 -28 -18 -52 c-18 -52 -17 -123 1
-158 9 -15 6 -15 -28 -3 -47 17 -97 17 -144 0 -34 -12 -37 -12 -28 3 18 35 19
106 1 158 l-18 52 29 28 c28 27 28 28 10 43 -28 21 -42 53 -42 92 1 90 98 145
180 103z"/>
<path d="M418 702 c-16 -3 -18 -16 -18 -108 0 -97 1 -104 20 -104 18 0 25 10
21 33 -3 17 49 6 59 -13 6 -11 20 -20 31 -20 18 0 20 4 14 29 -4 19 -1 38 9
53 32 49 -3 127 -58 129 -11 0 -30 2 -41 3 -11 1 -28 0 -37 -2z m92 -57 c16
-10 12 -52 -6 -59 -9 -3 -26 -6 -39 -6 -20 0 -24 5 -23 33 0 17 3 35 5 40 5 8
46 3 63 -8z"/>
<path d="M210 595 c0 -100 1 -105 21 -105 12 0 23 8 26 20 4 13 14 20 30 20
31 0 79 25 87 45 13 35 6 76 -19 100 -20 21 -34 25 -85 25 l-60 0 0 -105z
m111 56 c4 -1 9 -12 11 -26 6 -31 -12 -47 -49 -43 -28 3 -29 6 -25 61 2 14 8
17 30 13 15 -2 30 -5 33 -5z"/>
<path d="M620 673 c-45 -43 -45 -106 0 -151 26 -26 37 -30 75 -28 49 3 79 23
93 64 24 71 -25 142 -98 142 -29 0 -47 -7 -70 -27z m95 -25 c45 -20 45 -74 -1
-104 -15 -11 -24 -11 -43 -1 -60 30 -51 94 16 116 1 1 14 -4 28 -11z"/>
<path d="M833 685 c-38 -27 -23 -102 20 -106 7 -1 22 -3 33 -4 37 -4 49 -16
30 -31 -12 -8 -27 -10 -48 -3 -30 8 -58 -2 -58 -21 0 -11 48 -30 76 -30 28 0
65 17 76 34 25 37 -13 96 -61 96 -40 0 -56 14 -36 30 13 11 23 11 46 3 24 -9
32 -8 45 4 22 22 5 35 -53 40 -34 3 -55 0 -70 -12z"/>
<path d="M990 595 c0 -98 1 -105 20 -105 13 0 20 7 20 20 0 15 7 20 25 20 14
0 41 6 60 14 26 11 35 22 40 48 8 40 -7 83 -34 97 -11 6 -45 11 -75 11 l-56 0
0 -105z m107 53 c18 -15 16 -55 -3 -62 -9 -3 -27 -6 -40 -6 -21 0 -24 4 -22
33 1 17 3 34 4 37 5 10 48 9 61 -2z"/>
<path d="M1182 595 l-52 -105 30 0 c20 0 30 5 30 15 0 11 12 15 44 15 30 0 46
-5 50 -15 5 -13 56 -22 56 -10 0 7 -99 205 -103 205 -1 0 -26 -47 -55 -105z
m66 -26 c-16 -10 -33 5 -23 21 5 8 11 8 21 -1 12 -10 12 -14 2 -20z"/>
<path d="M1360 597 c0 -106 0 -107 24 -107 22 0 23 3 21 50 -1 28 0 50 3 50 2
0 30 -22 61 -49 l57 -50 0 105 c-1 100 -2 104 -23 104 -19 0 -22 -6 -25 -51
l-3 -51 -30 27 c-16 15 -42 39 -57 53 l-28 26 0 -107z"/>
<path d="M1542 598 c3 -95 4 -103 23 -103 19 0 20 8 23 103 l3 102 -26 0 -26
0 3 -102z"/>
<path d="M1639 671 c-26 -27 -32 -42 -32 -92 0 -74 138 -118 177 -56 19 29 -7
43 -46 24 -22 -11 -38 -13 -50 -6 -74 39 -20 142 54 104 28 -14 32 -13 44 2
10 15 8 20 -14 35 -43 28 -98 23 -133 -11z"/>
<path d="M1851 601 c-28 -55 -51 -103 -51 -106 0 -12 51 -3 56 10 4 10 20 15
50 15 32 0 44 -4 44 -15 0 -10 10 -15 30 -15 l30 0 -51 103 c-28 56 -53 104
-55 106 -1 2 -26 -42 -53 -98z m65 -30 c-4 -5 -13 -8 -22 -4 -11 4 -12 8 -3
20 14 16 36 2 25 -16z"/>
<path d="M1967 686 c-7 -17 22 -31 36 -17 5 5 6 14 3 20 -10 16 -33 14 -39 -3z"/>
<path d="M226 448 c3 -5 10 -6 15 -3 13 9 11 12 -6 12 -8 0 -12 -4 -9 -9z"/>
<path d="M263 433 c0 -25 3 -30 11 -19 13 16 46 29 46 18 0 -5 -4 -12 -10 -18
-6 -6 1 -10 23 -11 19 -1 26 1 16 5 -9 4 -15 17 -14 29 1 15 -4 21 -16 20 -10
-1 -16 -4 -13 -8 2 -4 -5 -9 -16 -12 -12 -3 -20 1 -23 12 -2 9 -4 1 -4 -16z"/>
<path d="M394 428 c-15 -29 -15 -31 -1 -20 11 9 21 10 34 4 25 -13 103 -13
103 0 0 6 6 5 16 -3 12 -10 20 -10 34 -1 12 7 21 8 25 2 8 -13 35 -13 35 0 0
5 -6 7 -14 4 -9 -3 -21 5 -31 20 -19 29 -43 34 -51 11 -7 -18 -30 -20 -40 -3
-5 8 -2 9 9 5 10 -3 17 -2 17 3 0 13 -27 13 -35 -1 -4 -6 1 -17 11 -24 15 -11
16 -14 4 -14 -8 -1 -26 9 -40 20 -17 15 -19 19 -7 15 11 -3 16 -2 12 4 -9 15
-35 12 -35 -4 0 -8 9 -18 21 -21 11 -4 18 -9 15 -12 -11 -11 -65 19 -59 33 10
27 -7 14 -23 -18z m186 2 c0 -11 -6 -20 -13 -20 -19 0 -27 10 -20 26 8 21 33
17 33 -6z"/>
<path d="M600 451 c0 -5 9 -7 20 -4 11 3 20 7 20 9 0 2 -9 4 -20 4 -11 0 -20
-4 -20 -9z"/>
<path d="M651 433 c-1 -36 9 -42 29 -18 11 13 14 13 27 -2 9 -12 8 -5 -3 17
l-17 35 -11 -30 -10 -30 -7 30 -7 30 -1 -32z"/>
<path d="M727 448 c-2 -7 0 -22 4 -33 l9 -20 -2 20 c-2 11 1 26 5 33 5 6 4 12
-1 12 -6 0 -12 -6 -15 -12z"/>
<path d="M763 438 c-10 -12 -12 -18 -4 -13 10 6 13 4 9 -7 -5 -12 2 -15 33
-15 28 0 39 4 35 13 -9 22 6 23 25 1 l18 -22 0 30 c0 25 -2 27 -8 10 l-8 -20
-6 20 c-10 29 -69 30 -94 3z m55 -11 c2 -12 -3 -17 -17 -17 -15 0 -21 6 -21
21 0 25 33 22 38 -4z"/>
<path d="M914 445 c-4 -8 -3 -22 0 -31 7 -18 38 -15 42 4 1 7 0 8 -3 2 -9 -18
-33 -10 -33 11 0 16 5 20 20 16 11 -3 18 -1 14 4 -8 14 -34 11 -40 -6z"/>
<path d="M970 428 c0 -36 11 -31 15 7 2 14 -1 25 -6 25 -5 0 -9 -14 -9 -32z"/>
<path d="M1032 430 c0 -19 2 -27 5 -17 2 9 2 25 0 35 -3 9 -5 1 -5 -18z"/>
<path d="M1091 434 c-1 -21 4 -31 14 -31 9 0 11 4 6 11 -5 6 -11 20 -14 31 -3
14 -5 10 -6 -11z"/>
<path d="M1110 446 c0 -8 7 -17 16 -20 8 -3 12 -10 9 -16 -3 -6 4 -10 17 -10
17 0 19 3 9 9 -8 5 -10 14 -6 21 4 7 2 16 -6 21 -21 13 -39 11 -39 -5z m35 -6
c3 -5 2 -10 -4 -10 -5 0 -13 5 -16 10 -3 6 -2 10 4 10 5 0 13 -4 16 -10z"/>
<path d="M1180 450 c13 -9 13 -11 0 -21 -12 -9 -12 -10 4 -5 13 5 17 2 12 -9
-3 -8 -1 -15 3 -15 5 0 11 6 14 13 3 9 8 9 21 -2 19 -16 21 -15 30 16 4 12 2
24 -4 28 -6 4 -10 -5 -10 -22 l-1 -28 -15 28 c-15 29 -30 37 -20 12 3 -8 1
-15 -3 -15 -5 0 -11 7 -15 15 -3 8 -11 15 -18 15 -9 0 -9 -3 2 -10z"/>
<path d="M1296 447 c3 -8 0 -18 -7 -23 -8 -5 -10 -3 -4 6 5 8 4 11 -3 6 -15
-9 -5 -33 13 -33 17 0 21 42 5 52 -5 3 -7 0 -4 -8z"/>
<path d="M1324 445 c-9 -23 3 -45 26 -45 11 0 20 4 20 9 0 5 -9 7 -20 4 -16
-4 -20 0 -20 17 0 17 4 21 20 17 11 -3 18 -1 14 4 -8 14 -34 11 -40 -6z"/>
<path d="M1402 430 c0 -19 2 -27 5 -17 2 9 2 25 0 35 -3 9 -5 1 -5 -18z"/>
<path d="M1424 440 c0 -13 4 -16 10 -10 7 7 7 13 0 20 -6 6 -10 3 -10 -10z"/>
<path d="M1450 428 c0 -36 10 -32 14 6 2 14 -1 26 -5 26 -5 0 -9 -14 -9 -32z"/>
<path d="M1484 430 c1 -21 6 -25 31 -25 25 0 30 4 30 25 0 21 -5 25 -31 25
-27 1 -31 -3 -30 -25z m56 0 c0 -11 -7 -20 -15 -20 -8 0 -15 9 -15 20 0 11 7
20 15 20 8 0 15 -9 15 -20z"/>
<path d="M1561 428 c2 -28 2 -29 6 -8 3 14 10 28 17 32 7 5 5 8 -6 8 -14 0
-18 -8 -17 -32z"/>
<path d="M1600 432 c0 -27 4 -32 23 -31 16 0 18 2 7 7 -8 4 -17 16 -18 27 -6
32 -12 31 -12 -3z"/>
<path d="M1652 431 c1 -28 3 -29 44 -29 45 0 61 19 28 32 -9 4 -14 9 -11 12 3
3 15 0 27 -6 16 -9 25 -9 33 -1 18 18 37 13 37 -10 0 -19 -4 -21 -30 -15 -16
3 -30 2 -30 -3 0 -4 18 -8 40 -8 34 0 40 3 40 21 0 20 0 20 16 -2 17 -24 40
-29 47 -9 4 10 7 10 18 0 14 -14 83 -18 75 -5 -3 5 -19 7 -36 4 -16 -2 -30 0
-30 5 0 5 -7 18 -16 29 -10 12 -14 14 -11 4 2 -8 -2 -21 -9 -28 -12 -11 -14
-9 -15 10 0 22 -1 22 -8 3 l-8 -20 -6 20 c-6 17 -16 20 -77 21 -49 0 -70 -3
-70 -12 0 -6 7 -15 16 -18 9 -4 14 -9 11 -12 -8 -8 -67 18 -67 30 0 4 7 6 15
2 8 -3 15 -1 15 4 0 6 -9 10 -19 10 -15 0 -19 -7 -19 -29z"/>
<path d="M1970 446 c0 -8 9 -18 20 -21 11 -4 17 -11 14 -17 -5 -7 -2 -8 6 -3
10 6 7 13 -11 27 -16 14 -18 18 -6 14 9 -3 17 -1 17 4 0 6 -9 10 -20 10 -11 0
-20 -6 -20 -14z"/>
<path d="M1060 440 c-9 -6 -10 -10 -3 -10 6 0 14 -8 16 -17 3 -11 5 -7 6 10 1
30 1 30 -19 17z"/>
<path d="M1931 434 c0 -11 3 -14 6 -6 3 7 2 16 -1 19 -3 4 -6 -2 -5 -13z"/>
</g>
</svg>
